
<svg xmlns="http://www.w3.org/2000/svg" viewBox="0 0 24 24" fill="none" stroke="currentColor" stroke-width="2" stroke-linecap="round" stroke-linejoin="round" class="feather">
  <defs>
    <linearGradient id="gradient" x1="0%" y1="0%" x2="100%" y2="100%">
      <stop offset="0%" stop-color="#8B5CF6" />
      <stop offset="100%" stop-color="#D946EF" />
    </linearGradient>
  </defs>
  <path d="M12 2v6a2 2 0 0 0 2 2h9a1 1 0 0 1 .7 1.7L7.1 20.3a1 1 0 0 1-1.7-.7V4a2 2 0 0 1 2-2h12a2 2 0 0 1 2 2v16a2 2 0 0 1-2 2H3a2 2 0 0 1-2-2V3" stroke="url(#gradient)" fill="url(#gradient)" />
</svg>
