<svg width="200" height="70" viewBox="0 0 200 70" xmlns="http://www.w3.org/2000/svg">
  <style>
    .st0{fill:#FFFFFF;}
  </style>
  <g>
    <path class="st0" d="M14.8,22.6c-2.1,0-3.9,0.4-5.3,1.1c-1.4,0.7-2.6,1.7-3.4,3c-0.8,1.3-1.2,2.8-1.2,4.5c0,1.7,0.4,3.2,1.2,4.5
      c0.8,1.3,2,2.3,3.4,3c1.4,0.7,3.2,1.1,5.3,1.1c1.5,0,2.9-0.2,4.1-0.7c1.2-0.4,2.3-1.1,3.2-1.9c0.9-0.8,1.6-1.8,2.1-2.9
      c0.5-1.1,0.7-2.3,0.7-3.6c0-1.3-0.2-2.5-0.7-3.6c-0.5-1.1-1.2-2.1-2.1-2.9c-0.9-0.8-2-1.4-3.2-1.9C17.7,22.8,16.3,22.6,14.8,22.6z"
    />
    <path class="st0" d="M40.3,13.1h-6.5v26.6h6.5V13.1z"/>
    <path class="st0" d="M47.5,13.1v26.6h6.4V29.5l9.3,10.2h8.2L60.7,28.1l10-8.4h-7.7l-9.1,8.1v-14.7H47.5z"/>
    <path class="st0" d="M92.9,32.5c-1,0.9-2.2,1.3-3.6,1.3c-1.5,0-2.7-0.4-3.6-1.3c-0.9-0.9-1.4-2.1-1.4-3.7c0-1.6,0.5-2.8,1.4-3.7
      c0.9-0.9,2.1-1.3,3.6-1.3c1.5,0,2.7,0.4,3.6,1.3c0.9,0.9,1.4,2.1,1.4,3.7C94.2,30.4,93.8,31.6,92.9,32.5z M98.3,23.3
      c-0.9-1.1-2.1-2-3.6-2.6c-1.5-0.6-3.3-0.9-5.3-0.9c-2,0-3.8,0.3-5.3,0.9c-1.5,0.6-2.7,1.5-3.6,2.6c-0.9,1.1-1.3,2.4-1.3,3.9v5.3
      c0,1.5,0.4,2.8,1.3,3.9c0.9,1.1,2.1,2,3.6,2.6c1.5,0.6,3.3,0.9,5.3,0.9c2,0,3.8-0.3,5.3-0.9c1.5-0.6,2.7-1.5,3.6-2.6
      c0.9-1.1,1.3-2.4,1.3-3.9v-5.3C99.6,25.6,99.2,24.4,98.3,23.3z"/>
    <path class="st0" d="M108.7,13.1h-6.5v26.6h6.5V28.5c0-1.5,0.4-2.7,1.3-3.5c0.9-0.8,2-1.2,3.5-1.2c1.4,0,2.6,0.4,3.4,1.2
      c0.8,0.8,1.2,2,1.2,3.5v11.2h6.5V28.5c0-2.5-0.4-4.5-1.3-6c-0.9-1.5-2.1-2.6-3.6-3.3c-1.5-0.7-3.2-1-5.1-1c-2.1,0-3.8,0.5-5.1,1.4
      c-1.3,0.9-2.2,2.2-2.7,3.9V13.1z"/>
    <path class="st0" d="M140.9,22.6c-1.2,0-2.3,0.2-3.2,0.5c-0.9,0.4-1.7,0.9-2.3,1.6c-0.6,0.7-1,1.6-1.2,2.6v-4.5h-6.4v16.8h6.5
      v-9.4c0-1.3,0.3-2.3,0.9-2.9c0.6-0.7,1.5-1,2.6-1c1.1,0,2,0.3,2.5,1c0.6,0.7,0.9,1.7,0.9,3v9.3h6.5v-9.4c0-3-0.7-5.3-2-6.8
      C144.4,22.9,142.8,22.6,140.9,22.6z"/>
    <path class="st0" d="M166.7,24c-1.3-0.9-3-1.4-5.1-1.4c-1.9,0-3.6,0.3-5.1,1c-1.5,0.7-2.7,1.7-3.6,3c-0.9,1.3-1.3,2.9-1.3,4.7
      c0,1.8,0.4,3.4,1.3,4.7c0.9,1.3,2.1,2.3,3.6,3c1.5,0.7,3.2,1,5.1,1c2.1,0,3.8-0.5,5.1-1.4c1.3-0.9,2.2-2.3,2.7-4h-6
      c-0.5,1.1-1.3,1.6-2.5,1.6c-0.9,0-1.6-0.3-2.1-0.8c-0.5-0.5-0.8-1.3-0.8-2.3h11.8c0-0.1,0-0.3,0-0.4c0-0.1,0-0.3,0-0.4v-0.9
      c0-1.8-0.4-3.4-1.3-4.7C169,25.7,168,24.7,166.7,24z M158,29.5c0.1-0.8,0.3-1.4,0.8-1.9c0.5-0.5,1.1-0.7,1.9-0.7
      c0.8,0,1.5,0.2,2,0.7c0.5,0.5,0.7,1.1,0.7,1.9H158z"/>
    <path class="st0" d="M188.1,23c-1.2-0.2-2.4-0.4-3.5-0.4c-1.2,0-2.3,0.1-3.4,0.4c-1.1,0.3-2,0.7-2.7,1.2c-0.8,0.5-1.3,1.2-1.8,2
      c-0.4,0.8-0.6,1.7-0.6,2.8c0,1.3,0.3,2.4,0.9,3.3c0.6,0.9,1.5,1.6,2.5,2.1c1.1,0.5,2.3,0.7,3.7,0.7c0.8,0,1.6-0.1,2.5-0.3
      c0.9-0.2,1.7-0.5,2.4-0.9v1h6.4V20.3h-6.5V23z M188.1,31.2c-0.3,0.2-0.6,0.3-1,0.4c-0.4,0.1-0.8,0.1-1.2,0.1c-0.7,0-1.3-0.2-1.8-0.5
      c-0.5-0.3-0.7-0.8-0.7-1.5c0-0.7,0.2-1.2,0.7-1.5c0.5-0.3,1.1-0.5,1.8-0.5c0.4,0,0.8,0,1.2,0.1c0.4,0.1,0.7,0.2,1,0.4V31.2z"/>
    <path class="st0" d="M29.3,49.1c-0.5-1.1-1.2-2.1-2.1-2.9c-0.9-0.8-2-1.4-3.2-1.9c-1.2-0.4-2.6-0.6-4.1-0.6c-2.1,0-3.9,0.4-5.3,1.1
      c-1.4,0.7-2.6,1.7-3.4,3c-0.8,1.3-1.2,2.8-1.2,4.5c0,1.7,0.4,3.2,1.2,4.5c0.8,1.3,2,2.3,3.4,3c1.4,0.7,3.2,1.1,5.3,1.1
      c1.5,0,2.9-0.2,4.1-0.7c1.2-0.4,2.3-1.1,3.2-1.9c0.9-0.8,1.6-1.8,2.1-2.9c0.5-1.1,0.7-2.3,0.7-3.6C30,51.4,29.8,50.2,29.3,49.1z
      M20.1,54.8c-0.8,0.8-1.8,1.2-3.2,1.2c-1.3,0-2.4-0.4-3.2-1.2c-0.8-0.8-1.2-1.8-1.2-3.1c0-1.3,0.4-2.3,1.2-3.1c0.8-0.8,1.8-1.2,3.2-1.2
      c1.3,0,2.4,0.4,3.2,1.2c0.8,0.8,1.2,1.8,1.2,3.1C21.3,53,20.9,54,20.1,54.8z"/>
  </g>
</svg> 